<svg width="167" height="36" viewBox="0 0 167 36" fill="none" xmlns="http://www.w3.org/2000/svg">
<path d="M1.10269e-06 34.4928L12.288 0.412822H19.9105L32.1985 34.4928H25.6512L22.8384 26.4289H9.34089L6.52812 34.4928H1.10269e-06ZM11.1745 21.0912H21.024L16.1089 6.72019L11.1745 21.0912ZM42.4224 35.0688C39.8176 35.0688 37.7616 34.2128 36.2544 32.5008C34.7472 30.7888 33.9936 28.4096 33.9936 25.3632V8.86081H40.1377V23.856C40.1377 26 40.4913 27.5728 41.1985 28.5743C41.9057 29.5759 42.9985 30.0767 44.4768 30.0767C46.1344 30.0767 47.424 29.5247 48.3456 28.4208C49.2672 27.3168 49.728 25.712 49.728 23.6064V8.86081H55.8721V34.4928H50.2272L50.0928 27.456L50.8896 27.696C50.48 30.1088 49.5552 31.9408 48.1152 33.192C46.6752 34.4432 44.7776 35.0688 42.4224 35.0688ZM61.2096 34.4928V8.86081H66.9505L67.1809 15.9841L66.6817 15.8593C67.0657 13.4016 67.7905 11.6208 68.8561 10.5168C69.9217 9.41281 71.3761 8.86081 73.2193 8.86081H75.6001V14.1217H73.2097C71.8913 14.1217 70.8017 14.3153 69.9409 14.7025C69.0801 15.0897 68.4337 15.6913 68.0017 16.5073C67.5697 17.3233 67.3537 18.3969 67.3537 19.7281V34.4928H61.2096ZM85.0752 35.0688C82.4128 35.0688 80.264 34.4544 78.6288 33.2256C76.9936 31.9968 76.176 30.2816 76.176 28.08C76.176 25.8528 76.864 24.1184 78.24 22.8768C79.616 21.6352 81.7024 20.7392 84.4992 20.1888L93.024 18.528C93.024 16.704 92.6064 15.3344 91.7712 14.4193C90.936 13.5041 89.7088 13.0465 88.0896 13.0465C86.5985 13.0465 85.4273 13.3873 84.5761 14.0689C83.7249 14.7505 83.1521 15.7376 82.8577 17.0304L76.608 16.7136C77.1008 14.0192 78.3408 11.9408 80.328 10.4784C82.3152 9.01601 84.9024 8.28481 88.0896 8.28481C91.7377 8.28481 94.4961 9.20161 96.3649 11.0352C98.2337 12.8688 99.1681 15.4976 99.1681 18.9216V28.2624C99.1681 28.9408 99.2849 29.4032 99.5185 29.6496C99.7521 29.896 100.109 30.0192 100.589 30.0192H101.405V34.4928C101.213 34.5504 100.902 34.6 100.474 34.6416C100.045 34.6832 99.6129 34.704 99.1777 34.704C98.1153 34.704 97.1697 34.5296 96.3409 34.1808C95.5121 33.832 94.8672 33.24 94.4064 32.4048C93.9456 31.5696 93.7152 30.416 93.7152 28.944L94.272 29.3088C93.9968 30.4352 93.44 31.4352 92.6016 32.3088C91.7632 33.1824 90.7008 33.8608 89.4144 34.344C88.128 34.8272 86.6816 35.0688 85.0752 35.0688ZM86.3425 30.5952C87.7056 30.5952 88.8848 30.328 89.88 29.7936C90.8752 29.2592 91.648 28.5072 92.1984 27.5376C92.7488 26.568 93.024 25.4368 93.024 24.144V22.7041L86.3809 24.048C85.0241 24.3168 84.0433 24.7344 83.4385 25.3008C82.8337 25.8672 82.5313 26.6016 82.5313 27.504C82.5313 28.4832 82.8625 29.2432 83.5249 29.784C84.1873 30.3248 85.1265 30.5952 86.3425 30.5952ZM109.738 34.4928C107.856 34.4928 106.362 34.0128 105.254 33.0528C104.147 32.0928 103.594 30.5504 103.594 28.4255V0.412822H109.738V27.8015C109.738 28.4671 109.903 28.9551 110.232 29.2655C110.562 29.5759 111.034 29.7311 111.648 29.7311H113.53V34.4928H109.738ZM116.026 34.4928V8.86081H122.17V34.4928H116.026ZM115.91 5.43364V-9.53674e-07H122.285V5.43364H115.91ZM136.147 34.4928C133.6 34.4928 131.726 33.904 130.526 32.7264C129.326 31.5488 128.726 29.6928 128.726 27.1584V2.85121H134.871V26.5631C134.871 27.7663 135.13 28.5951 135.648 29.0495C136.167 29.5039 136.96 29.7311 138.029 29.7311H141.639V34.4928H136.147ZM124.714 13.6225V8.86081H141.639V13.6225H124.714ZM144.346 34.4928V0.412822H150.49V14.7264L149.702 14.7072C149.971 13.2352 150.486 12.0288 151.248 11.088C152.01 10.1472 152.954 9.44481 154.08 8.98081C155.206 8.51681 156.442 8.28481 157.786 8.28481C159.674 8.28481 161.259 8.69601 162.542 9.51841C163.826 10.3408 164.795 11.4864 165.451 12.9552C166.107 14.424 166.435 16.1088 166.435 18.0096V34.4928H160.291V19.5264C160.291 17.4337 159.944 15.8689 159.25 14.8321C158.555 13.7953 157.446 13.2769 155.923 13.2769C154.259 13.2769 152.938 13.8177 151.958 14.8993C150.979 15.9809 150.49 17.5713 150.49 19.6704V34.4928H144.346Z" fill="url(#paint0_linear_1_262)"/>
<defs>
<linearGradient id="paint0_linear_1_262" x1="83.7484" y1="-11.5072" x2="83.7484" y2="46.4928" gradientUnits="userSpaceOnUse">
<stop stop-color="#DBFCFF"/>
<stop offset="1" stop-color="#00F0FF"/>
</linearGradient>
</defs>
</svg>
